<?xml version="1.0" encoding="UTF-8"?>
<svg id="Layer_2" data-name="Layer 2" xmlns="http://www.w3.org/2000/svg" viewBox="0 0 1161.44 243.31">
  <defs>
    <style>
      .cls-1 {
        fill: #20f220;
      }

      .cls-2 {
        fill: #68078c;
      }

      .cls-3 {
        fill: #fff;
      }

      .cls-4 {
        fill: #c30bff;
      }
    </style>
  </defs>
  <g id="Layer_1-2" data-name="Layer 1">
    <path class="cls-1" d="M502.31,226.2v-1.73c1.14.26,488.09-10.19,490.53-10.19,18.05,0,27.97-4.95,32.19-16.27l1.79-5.47-63.09-144.59h49.1l39.67,110.75h2.76l39.67-110.75h47.15l-61.79,145.37c-15.45,36.96-36.42,49.97-80.32,49.97-7.64,0-496.39-16.97-497.69-17.1Z"/>
    <path class="cls-2" d="M409.79,6.7v42.43h66.83v28.5h-66.01v68.58c0,10.8,9.59,16.92,26.67,16.92,4.23,0,35.28-.13,37.23-.26v28.11c-1.79.26-37.23.52-40.81.52-48.78,0-67.48-12.36-67.48-45.68v-68.19h-46.67v-28.5h46.67V6.7h43.58Z"/>
    <path class="cls-2" d="M542.98,150.25c0-25.9,23.58-41.12,67.8-43.6l41.95-2.08v-11.45c0-12.49-10.73-19.78-29.1-19.78-15.45,0-26.99,5.47-30.73,14.45h-43.25c3.25-26.03,32.68-42.82,75.28-42.82,46.02,0,71.87,17.57,71.87,48.93v97.35h-42.28v-19.13h-3.9c-8.78,13.53-27.64,21.47-51.06,21.47-33.82,0-56.58-17.44-56.58-43.34ZM652.73,137.89v-10.41l-34.47,1.69c-20.81,1.04-31.38,7.42-31.38,18.48s10.73,17.44,27.97,17.44c22.11,0,37.89-11.19,37.89-27.2Z"/>
    <path class="cls-2" d="M758.98,170.03l93.33-91.36v-2.21h-91.87v-28.76h145.2v23.95l-88.13,88.63v2.21h90.08v28.76h-148.61v-21.21Z"/>
    <path class="cls-3" d="M434.98,6.7v42.43h66.83v28.5h-66.01v68.58c0,10.8,9.59,16.92,26.67,16.92,4.23,0,35.28-.13,37.23-.26v28.11c-1.79.26-37.23.52-40.81.52-48.78,0-67.48-12.36-67.48-45.68v-68.19h-46.67v-28.5h46.67V6.7h43.58Z"/>
    <path class="cls-3" d="M568.16,150.25c0-25.9,23.58-41.12,67.8-43.6l41.95-2.08v-11.45c0-12.49-10.73-19.78-29.1-19.78-15.45,0-26.99,5.47-30.73,14.45h-43.25c3.25-26.03,32.68-42.82,75.28-42.82,46.02,0,71.87,17.57,71.87,48.93v97.35h-42.28v-19.13h-3.9c-8.78,13.53-27.64,21.47-51.06,21.47-33.82,0-56.58-17.44-56.58-43.34ZM677.92,137.89v-10.41l-34.47,1.69c-20.81,1.04-31.38,7.42-31.38,18.48s10.73,17.44,27.97,17.44c22.11,0,37.89-11.19,37.89-27.2Z"/>
    <path class="cls-3" d="M784.17,170.03l93.33-91.36v-2.21h-91.87v-28.76h145.2v23.95l-88.13,88.63v2.21h90.08v28.76h-148.61v-21.21Z"/>
    <path class="cls-3" d="M1002.26,242.78v-29.15c1.14.26,7.48.39,9.92.39,18.05,0,27.97-4.95,32.19-16.27l1.79-5.47-63.09-144.59h49.1l39.67,110.75h2.76l39.67-110.75h47.15l-61.79,145.37c-15.45,36.96-36.42,49.97-80.32,49.97-7.64,0-15.77-.13-17.07-.26Z"/>
    <g>
      <path class="cls-4" d="M291.01,105.21c0,21.31-6.3,41.13-17.13,57.7-.3.45-.59.9-.9,1.35-1.78,2.64-3.68,5.19-5.69,7.64-.01.01-.02.02-.03.04-1.46,1.79-2.98,3.54-4.56,5.22-1.15,1.24-2.33,2.45-3.54,3.62-2.29,2.23-4.68,4.36-7.17,6.37-.05.04-.1.08-.14.12-2.33,1.88-4.74,3.67-7.23,5.35-.05.03-.1.07-.15.1-.22.15-.43.29-.65.43,0,0,0,0,0,0-14.06,9.31-30.48,15.3-48.17,16.86-1.07.1-2.14.17-3.22.24-2.02.12-4.05.18-6.1.18-4.66,0-9.25-.3-13.74-.9-.89-.12-1.78-.25-2.66-.39-3.71-.59-7.36-1.37-10.93-2.34-.95-.26-1.89-.52-2.82-.81-5.1-1.54-10.04-3.46-14.78-5.73-.63-.3-1.25-.61-1.87-.92-3.69-1.86-7.25-3.92-10.67-6.19-5.03-3.33-9.75-7.08-14.12-11.2-5.61-5.29-10.64-11.2-14.99-17.62-6.06-8.95-10.79-18.89-13.88-29.53-2.73-9.39-4.2-19.33-4.2-29.61,0-.93.01-1.85.04-2.76.33-12.75,2.91-24.94,7.37-36.17C104.47,27.44,142.21,0,186.34,0c37.65,0,70.67,19.99,89.11,49.99,1.08,1.75,2.1,3.54,3.08,5.36.56,1.04,1.1,2.09,1.62,3.15,1.13,2.28,2.18,4.61,3.13,6.98.52,1.28,1.02,2.58,1.49,3.88,1.07,2.95,2.01,5.97,2.81,9.04,1.02,3.91,1.83,7.92,2.4,12,.54,3.86.88,7.79.99,11.77.03,1.01.04,2.03.04,3.04Z"/>
      <path class="cls-2" d="M280.08,114.05c0,16.72-5.08,32.24-13.77,45.1-1.36,2.01-2.81,3.96-4.34,5.84-3.52,4.32-7.47,8.25-11.8,11.74-1.78,1.44-3.62,2.8-5.52,4.08-10.87,7.34-23.64,12.07-37.41,13.29-2.35.21-4.72.32-7.11.32-3.56,0-7.06-.23-10.5-.69-3.54-.47-7-1.16-10.38-2.08-4.66-1.26-9.16-2.94-13.44-4.99-26.98-12.91-45.63-40.57-45.63-72.6,0-44.39,35.79-80.36,79.94-80.36,31.4,0,58.58,18.2,71.66,44.68.86,1.74,1.66,3.52,2.39,5.33,1.3,3.19,2.4,6.49,3.28,9.87,1.52,5.82,2.41,11.9,2.59,18.15.02.77.03,1.55.03,2.32Z"/>
      <path class="cls-1" d="M273.88,162.91l-2.9-3.74-2.57-3.31-8.24-10.62h0s-7.01-9.06-7.01-9.06l18.28-22.75h0s7.95-9.89,7.95-9.89l9.63-11.97.95-1.18,32.49-40.41h-39.91l-1.24,1.65-2.79,3.71-9.07,12.06-2.22,2.95-13.23,17.57c-6.72,9.58-13.44,18.79-20.16,29.47h-1.26c-1.8-2.67-3.58-5.29-5.36-7.88-1.46-2.12-2.92-4.23-4.39-6.34-.37-.53-.74-1.06-1.11-1.58-2.6-3.69-5.27-7.39-8.12-11.17-.53-.7-1.06-1.41-1.6-2.12l-6.36-8.4-11.57-15.29-11.06-14.62h-41.16l4,5.07,22.32,28.29,19.37,24.56,23.2,29.4-5.01,6.32-8.39,10.57-13.38,16.84-13.9,17.51-1.57,1.98-11.89,14.97-.41.51-8.54,10.75-1.67,2.1-7.48,9.42h40.75l13.2-18.02.94-1.28,10.74-14.67,4.13-5.65.3-.42.09-.12c2.29-3.24,4.55-6.38,6.77-9.49,3.05-4.26,6.02-8.44,8.92-12.71.06-.09.12-.19.19-.28,1.37-2.02,2.73-4.07,4.07-6.15.5-.77.99-1.54,1.48-2.33h.84c1.67,2.5,3.32,4.97,4.97,7.4,1.34,1.98,2.68,3.95,4.03,5.9,2.11,3.05,4.25,6.08,6.46,9.12,1.11,1.53,2.24,3.07,3.4,4.61.73.98,1.47,1.96,2.22,2.94.25.32.5.65.75.97l3.73,5.02h0s17.52,23.6,17.52,23.6l1.56,2.1,7,9.42h42l-50.68-65.37Z"/>
      <path class="cls-1" d="M273.33,190.65l-14.17-9.86-7.55-5.25-15.73-10.95-7.3-5.08-22.85-15.9-8.54-5.94-4.99-3.47-11.08-7.71h0s-10.44-7.27-10.44-7.27l8.84-5.93,8.04-5.39,10.34-6.94h.01s5.91-3.97,5.91-3.97l9.8-6.57,10.45-7.01,26.72-17.93,8.39-5.63,14.66-9.84h-59.4l-1.85,1.33-17.66,12.66-.84.6-9.64,6.9-8.74,6.26-3.77,2.7c-1.25.96-2.5,1.92-3.75,2.87-2.63,2.01-5.25,4-7.88,6.02-4.92,3.78-9.83,7.62-14.74,11.7-1.21,1.01-2.43,2.03-3.64,3.07h-1.87c-5.44-4.34-10.69-8.51-16.17-12.69-.13-.1-.26-.2-.39-.3-4.47-3.41-9.09-6.84-14.08-10.38l-20.33-14.49-22.81-16.26H5l76.7,52.44,25.82,17.66-21.66,14.72-41.23,28.01-17.7,12.02-15.81,10.74-11.13,7.57h60.64l21.03-15.5,18.08-13.31,4.52-3.32.13-.1c7.5-5.72,14.74-11.05,21.69-16.51.65-.51,1.3-1.02,1.94-1.53,2.8-2.23,5.55-4.48,8.26-6.8h1.26c2.82,2.28,5.6,4.51,8.39,6.73,1.67,1.32,3.34,2.64,5.01,3.95,4.73,3.69,9.54,7.34,14.68,11.03,1.44,1.04,2.92,2.09,4.43,3.14l.35.25,3.79,2.76,9.77,7.1,9.31,6.77,10.73,7.8,4.25,3.08,6.15,4.46.03.02h62.52l-3.61-2.51Z"/>
      <path class="cls-2" d="M267.26,171.95l-5.4-6.84-10.26-13-10.28-13.02h0s-6.68-8.47-6.68-8.47l17.41-21.28h0s16.73-20.45,16.73-20.45l5-6.11,10.98-13.41,15.86-19.38h-38l-.02.03-1.16,1.52-4.55,5.94-6.13,8.01-.61.8-14.71,19.19c-4.21,5.89-8.41,11.63-12.61,17.7-2.19,3.17-4.39,6.44-6.58,9.86h-1.2c-3.48-5.06-6.84-9.91-10.34-14.78-.3-.42-.6-.84-.91-1.26-1.69-2.33-3.41-4.68-5.21-7.06-1.02-1.36-2.07-2.73-3.14-4.11l-11.02-14.31-16.58-21.52h-39.19l10.09,12.56,21.53,26.81,19.22,23.93,14.75,18.36-2.06,2.55-21.8,26.97-15.48,19.16-.89,1.1-9.49,11.73-1.83,2.27-3.17,3.92c.62.31,1.24.62,1.87.92,4.74,2.27,9.67,4.19,14.78,5.73l-8.54,10.75h16.62l5.67-7.6,7.79-10.45,4.68-6.27,9.77-13.11.08-.12c.34-.47.68-.94,1.02-1.41,3.65-5.05,7.2-9.86,10.65-14.7,1.16-1.63,2.31-3.27,3.45-4.92,1.79-2.6,3.55-5.22,5.28-7.93h.81c2.89,4.24,5.71,8.37,8.57,12.44.76,1.08,1.53,2.16,2.3,3.24,2.29,3.2,4.63,6.39,7.09,9.61.92,1.21,1.87,2.43,2.83,3.65l4.12,5.45,6.1,8.08.33.43h0s11.68,0,11.68,0l17.52,23.59h28.63l-35.37-44.81Z"/>
      <path class="cls-3" d="M275.31,193.16l-1.98-2.51-10.62-13.48-5.44-6.9-39.04-49.53,9-11.22,35.98-44.84,11.78-14.69h-48.38l-.02.03-20.95,29.87-7.04,10.04-5.85,8.34h-2.74l-14.31-20.51-19.39-27.78h-50.96l22.84,29.01,17.38,22.07,16.72,21.23-16.34,20.52-12.45,15.63-18.74,23.53-8.92,11.2h46.77l7.19-9.73,14.41-19.51,13.88-18.79h2.58l6.68,9.05,6.59,8.91,11.49,15.55,8.89,12.03,1.83,2.48h0s49.19,0,49.19,0h0Z"/>
    </g>
  </g>
</svg>
